<svg xmlns="http://www.w3.org/2000/svg" viewBox="0 0 1200 900" role="img" aria-labelledby="title desc">
  <title id="title">Quiet Signal</title>
  <desc id="desc">Abstract nocturne with blue forms, pale shapes, and measured graphite lines.</desc>
  <defs>
    <filter id="grain">
      <feTurbulence type="fractalNoise" baseFrequency=".64" numOctaves="3" stitchTiles="stitch"/>
      <feComponentTransfer>
        <feFuncA type="table" tableValues="0 .15"/>
      </feComponentTransfer>
    </filter>
  </defs>
  <rect width="1200" height="900" fill="#111717"/>
  <path d="M105 148h990v604H105z" fill="#203d51"/>
  <path d="M173 647c59-155 150-276 274-365 129-92 273-132 432-121 53 3 100 13 141 29v457H173z" fill="#f0eee5"/>
  <path d="M223 674c102-186 237-294 407-323 151-26 300 23 447 145v178H223z" fill="#2d8291"/>
  <path d="M287 218c-3 111 31 198 102 261 66 59 155 85 268 79" fill="none" stroke="#151717" stroke-width="19" stroke-linecap="round"/>
  <path d="M633 147c68 168 87 334 56 497" fill="none" stroke="#d95439" stroke-width="13" stroke-linecap="round"/>
  <path d="M760 255c82 78 136 162 162 253" fill="none" stroke="#e5cc70" stroke-width="23" stroke-linecap="round"/>
  <circle cx="346" cy="584" r="63" fill="#131615"/>
  <rect width="1200" height="900" filter="url(#grain)"/>
</svg>
