<svg xmlns="http://www.w3.org/2000/svg" viewBox="0 0 1200 900" role="img" aria-labelledby="title desc">
  <title id="title">Field Notes</title>
  <desc id="desc">Abstract composition of charcoal marks, green field shapes, and a quiet red line.</desc>
  <defs>
    <filter id="grain">
      <feTurbulence type="fractalNoise" baseFrequency=".8" numOctaves="2" stitchTiles="stitch"/>
      <feComponentTransfer>
        <feFuncA type="table" tableValues="0 .12"/>
      </feComponentTransfer>
    </filter>
  </defs>
  <rect width="1200" height="900" fill="#ece8de"/>
  <rect x="96" y="112" width="1008" height="676" rx="2" fill="#d8e1cb"/>
  <path d="M160 705c100-232 248-381 444-446 169-56 327-32 474 72v374H160z" fill="#416656"/>
  <path d="M224 189c148 32 254 92 318 180 53 72 75 167 65 285" fill="none" stroke="#161917" stroke-width="35" stroke-linecap="round"/>
  <path d="M770 178c-96 165-127 337-91 517" fill="none" stroke="#f4d775" stroke-width="38" stroke-linecap="round"/>
  <path d="M324 642c189-62 367-67 535-16" fill="none" stroke="#101111" stroke-width="18" stroke-linecap="round"/>
  <path d="M148 482h879" fill="none" stroke="#bb3530" stroke-width="11" stroke-linecap="round"/>
  <circle cx="859" cy="324" r="86" fill="#dce8ea" opacity=".88"/>
  <rect width="1200" height="900" filter="url(#grain)"/>
</svg>
